<svg width="24" height="24" viewBox="0 0 16 16" fill="#fff" xmlns="http://www.w3.org/2000/svg">
<path d="M11.3334 9.99996H12.6667V11.3333H11.3334V9.99996ZM11.3334 7.33329H12.6667V8.66663H11.3334V7.33329ZM11.3334 4.66663H12.6667V5.99996H11.3334V4.66663ZM9.16003 4.66663L10 5.22663V4.66663H9.16003Z" fill="white"/>
<path d="M6.66675 2V3.00667L8.00008 3.89333V3.33333H14.0001V12.6667H11.3334V14H15.3334V2H6.66675Z" fill="white"/>
<path d="M5.44663 3.79999L9.99996 6.83332V14H0.666626V6.98665L5.44663 3.79999ZM6.66663 12.6667H8.66663V7.43999L5.44663 5.39332L1.99996 7.58665V12.6667H3.99996V8.66665H6.66663V12.6667Z" fill="white"/>
</svg>
