<svg width="16" height="16" viewBox="0 0 16 16" fill="none" xmlns="http://www.w3.org/2000/svg">
<path d="M8.00008 8.00004C7.26675 8.00004 6.66675 7.40004 6.66675 6.66671C6.66675 5.93337 7.26675 5.33337 8.00008 5.33337C8.73342 5.33337 9.33342 5.93337 9.33342 6.66671C9.33342 7.40004 8.73342 8.00004 8.00008 8.00004ZM12.0001 6.80004C12.0001 4.38004 10.2334 2.66671 8.00008 2.66671C5.76675 2.66671 4.00008 4.38004 4.00008 6.80004C4.00008 8.36004 5.30008 10.4267 8.00008 12.8934C10.7001 10.4267 12.0001 8.36004 12.0001 6.80004ZM8.00008 1.33337C10.8001 1.33337 13.3334 3.48004 13.3334 6.80004C13.3334 9.01337 11.5534 11.6334 8.00008 14.6667C4.44675 11.6334 2.66675 9.01337 2.66675 6.80004C2.66675 3.48004 5.20008 1.33337 8.00008 1.33337Z" fill="white"/>
</svg>
